<?xml version="1.0" encoding="utf-8"?>
<!-- Generator: Adobe Illustrator 21.1.0, SVG Export Plug-In . SVG Version: 6.00 Build 0)  -->
<svg version="1.1" id="Capa_1" xmlns="http://www.w3.org/2000/svg" xmlns:xlink="http://www.w3.org/1999/xlink" x="0px" y="0px"
	 viewBox="0 0 500 500" style="enable-background:new 0 0 500 500;" xml:space="preserve">
<style type="text/css">
	.st0{fill:url(#SVGID_1_);}
	.st1{fill:url(#SVGID_2_);}
	.st2{fill:#AA8E54;}
	.st3{fill:#4A515B;}
</style>
<g>
	<linearGradient id="SVGID_1_" gradientUnits="userSpaceOnUse" x1="132.529" y1="164.1944" x2="360.7417" y2="164.1944">
		<stop  offset="0" style="stop-color:#E9CA7D"/>
		<stop  offset="1" style="stop-color:#B09147"/>
	</linearGradient>
	<polygon class="st0" points="246.6,194.8 344.6,99.8 344.6,231.7 281.8,178.2 270.2,189.5 360.7,266.8 360.7,61.6 246.6,172.2 
		132.5,61.6 132.5,266.8 223.1,189.5 211.4,178.2 148.7,231.7 148.7,99.8 	"/>
	<linearGradient id="SVGID_2_" gradientUnits="userSpaceOnUse" x1="161.6962" y1="126.915" x2="331.5746" y2="126.915">
		<stop  offset="0" style="stop-color:#E9CA7D"/>
		<stop  offset="1" style="stop-color:#B09147"/>
	</linearGradient>
	<polygon class="st1" points="246.6,155.1 315.4,85.7 315.4,171.7 301.3,159.3 289.6,170.6 331.6,207.5 331.6,46.4 246.6,132.1 
		161.7,46.4 161.7,207.5 203.6,170.6 192,159.3 177.9,171.7 177.9,85.7 	"/>
	<g>
		<path class="st2" d="M132.9,407.4h-15.7v-91.6h-0.4l-49.2,73.1l-48.8-73.1l-0.4,0v91.6H2.7V295.3h19.6l45.4,67.7l45.6-67.7h19.6
			V407.4z"/>
		<path class="st2" d="M263.7,407.4h-99.2V295.3h95.5v16.7h-79.8v28.8h55.5v16.7h-55.5v33.1h83.5V407.4z"/>
		<path class="st2" d="M360.7,371.5c0,12.7-3.6,22.4-10.9,29.2c-7.3,6.8-17.9,10.1-32,10.1c-12.7,0-22.6-3.3-29.5-9.9
			c-6.9-6.6-10.7-16.2-11.2-28.8h16c0.7,7.9,3.1,13.5,7.1,16.9c4,3.4,10.2,5.1,18.6,5.1c9.3,0,16-1.7,20.1-5.1
			c4.1-3.4,6.1-9.2,6.1-17.4v-76.3h15.7V371.5z"/>
		<path class="st2" d="M496.6,407.4h-17.2l-10.9-25.1h-63.8l-10.9,25.1h-17.2l50.1-112.1h19.8L496.6,407.4z M460.9,365.6l-24.1-54.3
			l-24.4,54.3H460.9z"/>
	</g>
	<g>
		<path class="st3" d="M89.3,444.1l1,0.9c-2.2,2-4.8,3-7.7,3c-3.2,0-5.9-1.1-8.1-3.4c-2.2-2.2-3.4-4.9-3.4-8.1
			c0-3.2,1.1-5.9,3.4-8.1c2.2-2.2,4.9-3.4,8.1-3.4c3,0,5.5,1,7.7,3l-1,0.9c-1.9-1.7-4.2-2.6-6.8-2.6c-2.8,0-5.2,1-7.2,3
			c-2,2-3,4.4-3,7.2c0,2.8,1,5.2,3,7.2c2,2,4.4,3,7.2,3C85.1,446.7,87.4,445.9,89.3,444.1z"/>
		<path class="st3" d="M100.6,432.7c2.1,0,3.9,0.8,5.4,2.3c1.5,1.5,2.2,3.3,2.2,5.4c0,2.1-0.7,3.9-2.2,5.4c-1.5,1.5-3.3,2.3-5.4,2.3
			c-2.1,0-3.9-0.8-5.4-2.3c-1.5-1.5-2.3-3.3-2.3-5.4c0-2.1,0.8-3.9,2.3-5.4C96.7,433.5,98.5,432.7,100.6,432.7z M96.1,435.9
			c-1.2,1.2-1.9,2.7-1.9,4.5c0,1.8,0.6,3.3,1.9,4.5c1.2,1.2,2.7,1.9,4.5,1.9s3.3-0.6,4.5-1.9c1.2-1.2,1.9-2.7,1.9-4.5
			c0-1.8-0.6-3.3-1.9-4.5c-1.2-1.2-2.7-1.9-4.5-1.9S97.4,434.7,96.1,435.9z"/>
		<path class="st3" d="M118.5,432.7c2.1,0,3.9,0.8,5.4,2.3c1.5,1.5,2.2,3.3,2.2,5.4c0,2.1-0.7,3.9-2.2,5.4c-1.5,1.5-3.3,2.3-5.4,2.3
			c-2.1,0-3.9-0.8-5.4-2.3c-1.5-1.5-2.3-3.3-2.3-5.4c0-2.1,0.8-3.9,2.3-5.4C114.6,433.5,116.4,432.7,118.5,432.7z M114,435.9
			c-1.2,1.2-1.9,2.7-1.9,4.5c0,1.8,0.6,3.3,1.9,4.5c1.2,1.2,2.7,1.9,4.5,1.9s3.3-0.6,4.5-1.9c1.2-1.2,1.9-2.7,1.9-4.5
			c0-1.8-0.6-3.3-1.9-4.5c-1.2-1.2-2.7-1.9-4.5-1.9S115.3,434.7,114,435.9z"/>
		<path class="st3" d="M129.6,434h1.3v2.5c0.3-0.4,0.6-0.7,0.9-1.1c1.1-1.1,2.2-1.7,3.4-1.8v1.4c-0.8,0-1.6,0.5-2.5,1.3
			c-1.2,1.2-1.8,2.6-1.9,4.3v7.1h-1.3V434z"/>
		<path class="st3" d="M138.2,434h1.3v1.9c0.2-0.3,0.5-0.6,0.8-0.9c1.5-1.5,3.3-2.2,5.4-2.2c2.1,0,3.9,0.7,5.4,2.2
			c1.5,1.5,2.2,3.3,2.2,5.4c0,2.1-0.7,3.9-2.2,5.4c-1.5,1.5-3.3,2.3-5.4,2.3c-2.1,0-3.9-0.8-5.4-2.3c-0.3-0.3-0.6-0.6-0.8-0.9v8
			h-1.3V434z M139.5,439.1v2.6c0.2,1.2,0.8,2.3,1.7,3.2c1.2,1.2,2.7,1.9,4.5,1.9c1.8,0,3.3-0.6,4.5-1.9c1.2-1.2,1.9-2.7,1.9-4.5
			c0-1.8-0.6-3.3-1.9-4.5c-1.2-1.2-2.7-1.9-4.5-1.9c-1.8,0-3.3,0.6-4.5,1.9C140.3,436.8,139.7,437.9,139.5,439.1z"/>
		<path class="st3" d="M163.8,432.7c2.1,0,3.9,0.8,5.4,2.3c1.5,1.5,2.2,3.3,2.2,5.4c0,2.1-0.7,3.9-2.2,5.4c-1.5,1.5-3.3,2.3-5.4,2.3
			c-2.1,0-3.9-0.8-5.4-2.3c-1.5-1.5-2.3-3.3-2.3-5.4c0-2.1,0.8-3.9,2.3-5.4C159.8,433.5,161.6,432.7,163.8,432.7z M159.3,435.9
			c-1.2,1.2-1.9,2.7-1.9,4.5c0,1.8,0.6,3.3,1.9,4.5c1.2,1.2,2.7,1.9,4.5,1.9c1.8,0,3.3-0.6,4.5-1.9c1.2-1.2,1.9-2.7,1.9-4.5
			c0-1.8-0.6-3.3-1.9-4.5c-1.2-1.2-2.7-1.9-4.5-1.9C162,434.1,160.5,434.7,159.3,435.9z"/>
		<path class="st3" d="M174.8,434h1.3v2.5c0.3-0.4,0.6-0.7,0.9-1.1c1.1-1.1,2.2-1.7,3.4-1.8v1.4c-0.8,0-1.6,0.5-2.5,1.3
			c-1.2,1.2-1.8,2.6-1.9,4.3v7.1h-1.3V434z"/>
		<path class="st3" d="M198,447.7h-1.3v-2.8c-0.2,0.3-0.5,0.6-0.8,0.9c-1.5,1.5-3.3,2.3-5.4,2.3c-2.1,0-3.9-0.8-5.4-2.3
			c-1.5-1.5-2.3-3.3-2.3-5.4c0-2.1,0.8-3.9,2.3-5.4c1.5-1.5,3.3-2.3,5.4-2.3c2.1,0,3.9,0.8,5.4,2.3c0.3,0.3,0.6,0.6,0.8,0.9V434h1.3
			V447.7z M196.8,441.7v-2.5c-0.2-1.2-0.8-2.3-1.8-3.2c-1.2-1.2-2.7-1.9-4.5-1.9c-1.8,0-3.3,0.6-4.5,1.9c-1.2,1.2-1.9,2.7-1.9,4.5
			c0,1.8,0.6,3.3,1.9,4.5c1.2,1.2,2.7,1.9,4.5,1.9c1.8,0,3.3-0.6,4.5-1.9C196,444,196.5,442.9,196.8,441.7z"/>
		<path class="st3" d="M214,444.4l1.3,0.5c-0.2,0.3-0.5,0.7-0.8,1c-1.5,1.5-3.3,2.3-5.4,2.3c-2.1,0-3.9-0.8-5.4-2.3
			c-1.5-1.5-2.3-3.3-2.3-5.4c0-2.1,0.8-3.9,2.3-5.4c1.5-1.5,3.3-2.3,5.4-2.3c2.1,0,3.9,0.8,5.4,2.3c0.3,0.3,0.6,0.6,0.8,1l-1.3,0.5
			c-0.1-0.2-0.3-0.3-0.4-0.5c-1.2-1.2-2.7-1.8-4.5-1.8c-1.7,0-3.2,0.6-4.5,1.9c-1.2,1.2-1.9,2.7-1.9,4.5c0,1.8,0.6,3.3,1.9,4.5
			s2.7,1.9,4.5,1.9c1.8,0,3.3-0.6,4.5-1.9C213.7,444.7,213.9,444.6,214,444.4z"/>
		<path class="st3" d="M220.5,429.5c0.2,0.2,0.4,0.5,0.4,0.9c0,0.4-0.1,0.7-0.4,0.9c-0.2,0.2-0.5,0.4-0.9,0.4s-0.6-0.1-0.9-0.4
			c-0.2-0.2-0.4-0.5-0.4-0.9c0-0.3,0.1-0.6,0.4-0.9c0.2-0.2,0.5-0.4,0.9-0.4S220.3,429.2,220.5,429.5z M220.3,434v13.7H219V434
			H220.3z"/>
		<path class="st3" d="M231.6,432.7c2.1,0,3.9,0.8,5.4,2.3c1.5,1.5,2.2,3.3,2.2,5.4c0,2.1-0.7,3.9-2.2,5.4c-1.5,1.5-3.3,2.3-5.4,2.3
			c-2.1,0-3.9-0.8-5.4-2.3c-1.5-1.5-2.3-3.3-2.3-5.4c0-2.1,0.8-3.9,2.3-5.4C227.7,433.5,229.5,432.7,231.6,432.7z M227.1,435.9
			c-1.2,1.2-1.9,2.7-1.9,4.5c0,1.8,0.6,3.3,1.9,4.5c1.2,1.2,2.7,1.9,4.5,1.9c1.8,0,3.3-0.6,4.5-1.9c1.2-1.2,1.9-2.7,1.9-4.5
			c0-1.8-0.6-3.3-1.9-4.5c-1.2-1.2-2.7-1.9-4.5-1.9C229.8,434.1,228.3,434.7,227.1,435.9z M234.6,428.3l-3.4,2.6H230l2.3-2.6H234.6z
			"/>
		<path class="st3" d="M243.9,437v10.7h-1.3V434h1.3v0.9c1.1-1.1,2.5-1.7,4-1.7c1.6,0,2.9,0.5,4,1.5c1,1,1.5,2.3,1.6,3.9v9.2h-1.3
			v-9.1c0-1.2-0.4-2.2-1.3-3c-0.8-0.8-1.8-1.2-3-1.2c-1.2,0-2.2,0.4-3,1.2C244.4,436.1,244.1,436.6,243.9,437z"/>
		<path class="st3" d="M282.4,447.7h-1.3v-2.8c-0.2,0.3-0.5,0.6-0.8,0.9c-1.5,1.5-3.3,2.3-5.4,2.3c-2.1,0-3.9-0.8-5.4-2.3
			c-1.5-1.5-2.3-3.3-2.3-5.4c0-2.1,0.8-3.9,2.3-5.4c1.5-1.5,3.3-2.3,5.4-2.3c2.1,0,3.9,0.8,5.4,2.3c0.3,0.3,0.6,0.6,0.8,0.9v-10.6
			h1.3V447.7z M281.1,441.7v-2.5c-0.2-1.2-0.8-2.3-1.8-3.2c-1.2-1.2-2.7-1.9-4.5-1.9c-1.8,0-3.3,0.6-4.5,1.9
			c-1.2,1.2-1.9,2.7-1.9,4.5c0,1.8,0.6,3.3,1.9,4.5c1.2,1.2,2.7,1.9,4.5,1.9c1.8,0,3.3-0.6,4.5-1.9
			C280.3,444,280.9,442.9,281.1,441.7z"/>
		<path class="st3" d="M289.2,445.1c1.2,1.1,2.6,1.6,4.2,1.6c1.8,0,3.3-0.6,4.5-1.9c0.2-0.2,0.3-0.3,0.4-0.5l1.3,0.5
			c-0.2,0.3-0.5,0.7-0.8,1c-1.5,1.5-3.3,2.3-5.4,2.3c-2.1,0-3.9-0.8-5.4-2.3c-1.5-1.5-2.3-3.3-2.3-5.4c0-2.1,0.8-3.9,2.3-5.4
			c1.5-1.5,3.3-2.3,5.4-2.3c1.8,0,3.4,0.5,4.8,1.6c0.2,0.2,0.4,0.4,0.7,0.6c0.1,0.1,0.2,0.2,0.2,0.3l-1,1L289.2,445.1z M297.2,435.3
			c-1.1-0.8-2.4-1.3-3.8-1.3c-1.7,0-3.2,0.6-4.5,1.9c-1.2,1.2-1.9,2.7-1.9,4.5c0,1.4,0.4,2.7,1.3,3.8L297.2,435.3z"/>
		<path class="st3" d="M318.5,435.3c-1.6-0.5-2.9-1.3-3.8-2.2c-0.9-0.9-1.4-2-1.4-3.4c0-1.3,0.5-2.4,1.4-3.3c0.9-0.9,2-1.4,3.4-1.4
			c1.3,0,2.4,0.5,3.4,1.4c0.5,0.5,0.9,1,1.1,1.7l-1.1,0.4c-0.2-0.5-0.4-0.9-0.8-1.3c-0.7-0.7-1.5-1-2.5-1c-1,0-1.8,0.3-2.5,1
			c-0.7,0.7-1,1.5-1,2.5c0,1,0.3,1.8,1,2.5c0.6,0.6,1.5,1.2,2.6,1.7c1.8,0.6,3.3,1.5,4.5,2.7c1.3,1.3,1.9,2.8,1.9,4.7
			c0,1.8-0.6,3.4-1.9,4.7c-1.3,1.3-2.9,1.9-4.7,1.9c-1.8,0-3.4-0.7-4.7-2c-1-1-1.7-2.2-1.9-3.6l1.2-0.4c0.1,1.2,0.6,2.3,1.6,3.2
			c1.1,1.1,2.3,1.6,3.8,1.6c1.5,0,2.8-0.5,3.8-1.6c1.1-1.1,1.6-2.3,1.6-3.8c0-1.5-0.5-2.8-1.6-3.8
			C321,436.6,319.9,435.9,318.5,435.3z"/>
		<path class="st3" d="M330.2,445.1c1.2,1.1,2.6,1.6,4.2,1.6c1.8,0,3.3-0.6,4.5-1.9c0.2-0.2,0.3-0.3,0.4-0.5l1.3,0.5
			c-0.2,0.3-0.5,0.7-0.8,1c-1.5,1.5-3.3,2.3-5.4,2.3c-2.1,0-3.9-0.8-5.4-2.3c-1.5-1.5-2.3-3.3-2.3-5.4c0-2.1,0.8-3.9,2.3-5.4
			c1.5-1.5,3.3-2.3,5.4-2.3c1.8,0,3.4,0.5,4.8,1.6c0.2,0.2,0.4,0.4,0.7,0.6c0.1,0.1,0.2,0.2,0.2,0.3l-1,1L330.2,445.1z M338.2,435.3
			c-1.1-0.8-2.4-1.3-3.8-1.3c-1.7,0-3.2,0.6-4.5,1.9c-1.2,1.2-1.9,2.7-1.9,4.5c0,1.4,0.4,2.7,1.3,3.8L338.2,435.3z"/>
		<path class="st3" d="M344,434h1.3v2.5c0.3-0.4,0.6-0.7,0.9-1.1c1.1-1.1,2.2-1.7,3.4-1.8v1.4c-0.8,0-1.6,0.5-2.5,1.3
			c-1.2,1.2-1.8,2.6-1.9,4.3v7.1H344V434z"/>
		<path class="st3" d="M358.8,445.4l5.3-11.5h1.5l-6.7,14.1l-6.7-14.1h1.5L358.8,445.4z"/>
		<path class="st3" d="M370.2,429.5c0.2,0.2,0.4,0.5,0.4,0.9c0,0.4-0.1,0.7-0.4,0.9c-0.2,0.2-0.5,0.4-0.9,0.4
			c-0.3,0-0.6-0.1-0.9-0.4c-0.2-0.2-0.4-0.5-0.4-0.9c0-0.3,0.1-0.6,0.4-0.9c0.2-0.2,0.5-0.4,0.9-0.4
			C369.6,429.1,369.9,429.2,370.2,429.5z M369.9,434v13.7h-1.3V434H369.9z"/>
		<path class="st3" d="M386.2,444.4l1.3,0.5c-0.2,0.3-0.5,0.7-0.8,1c-1.5,1.5-3.3,2.3-5.4,2.3c-2.1,0-3.9-0.8-5.4-2.3
			c-1.5-1.5-2.3-3.3-2.3-5.4c0-2.1,0.8-3.9,2.3-5.4c1.5-1.5,3.3-2.3,5.4-2.3c2.1,0,3.9,0.8,5.4,2.3c0.3,0.3,0.6,0.6,0.8,1l-1.3,0.5
			c-0.1-0.2-0.3-0.3-0.4-0.5c-1.2-1.2-2.7-1.8-4.5-1.8c-1.7,0-3.2,0.6-4.5,1.9c-1.2,1.2-1.9,2.7-1.9,4.5c0,1.8,0.6,3.3,1.9,4.5
			c1.2,1.2,2.7,1.9,4.5,1.9c1.8,0,3.3-0.6,4.5-1.9C385.9,444.7,386.1,444.6,386.2,444.4z"/>
		<path class="st3" d="M392.7,429.5c0.2,0.2,0.4,0.5,0.4,0.9c0,0.4-0.1,0.7-0.4,0.9c-0.2,0.2-0.5,0.4-0.9,0.4
			c-0.3,0-0.6-0.1-0.9-0.4c-0.2-0.2-0.4-0.5-0.4-0.9c0-0.3,0.1-0.6,0.4-0.9c0.2-0.2,0.5-0.4,0.9-0.4
			C392.1,429.1,392.4,429.2,392.7,429.5z M392.4,434v13.7h-1.3V434H392.4z"/>
		<path class="st3" d="M403.8,432.7c2.1,0,3.9,0.8,5.4,2.3c1.5,1.5,2.2,3.3,2.2,5.4c0,2.1-0.7,3.9-2.2,5.4c-1.5,1.5-3.3,2.3-5.4,2.3
			c-2.1,0-3.9-0.8-5.4-2.3c-1.5-1.5-2.3-3.3-2.3-5.4c0-2.1,0.8-3.9,2.3-5.4C399.8,433.5,401.6,432.7,403.8,432.7z M399.3,435.9
			c-1.2,1.2-1.9,2.7-1.9,4.5c0,1.8,0.6,3.3,1.9,4.5c1.2,1.2,2.7,1.9,4.5,1.9c1.8,0,3.3-0.6,4.5-1.9c1.2-1.2,1.9-2.7,1.9-4.5
			c0-1.8-0.6-3.3-1.9-4.5c-1.2-1.2-2.7-1.9-4.5-1.9C402,434.1,400.5,434.7,399.3,435.9z"/>
		<path class="st3" d="M418.6,440.6c-1.1-0.6-1.8-1.1-2.2-1.5c-0.6-0.6-1-1.4-1-2.3c0-0.9,0.3-1.7,1-2.3c0.6-0.6,1.4-1,2.3-1
			c0.9,0,1.7,0.3,2.3,0.9c0.6,0.6,0.9,1.3,0.9,2v0.1l-1.1,0.4c-0.1-0.7-0.3-1.2-0.7-1.6c-0.4-0.4-0.8-0.5-1.4-0.5
			c-0.6,0-1,0.2-1.4,0.6c-0.4,0.4-0.6,0.9-0.6,1.4c0,0.6,0.2,1,0.6,1.4c0.2,0.2,0.7,0.6,1.5,1.1c1.2,0.7,2,1.2,2.5,1.7
			c0.8,0.8,1.2,1.8,1.2,2.9c0,1.1-0.4,2.1-1.2,2.9c-0.8,0.8-1.8,1.2-2.9,1.2c-1.1,0-2.1-0.4-2.9-1.2c-0.8-0.8-1.2-1.7-1.2-2.6
			l1.2-0.3c0,0.8,0.3,1.5,0.8,2.1c0.6,0.6,1.2,0.8,2,0.8c0.8,0,1.4-0.3,2-0.8c0.6-0.6,0.8-1.2,0.8-2c0-0.8-0.3-1.4-0.8-2
			C420.1,441.7,419.5,441.2,418.6,440.6z"/>
	</g>
</g>
</svg>
