<?xml version="1.0" encoding="utf-8"?>
<!-- Generator: Adobe Illustrator 21.1.0, SVG Export Plug-In . SVG Version: 6.00 Build 0)  -->
<svg version="1.1" id="Capa_1" xmlns="http://www.w3.org/2000/svg" xmlns:xlink="http://www.w3.org/1999/xlink" x="0px" y="0px"
	 viewBox="0 0 500 500" style="enable-background:new 0 0 500 500;" xml:space="preserve">
<path d="M263.1,440.2V296.6l1-8.6l7.6-1.9c2.9-1,5.7-1.9,8.6-3.8c23.8-9.5,44.7-31.4,56.1-65.6c11.4-35.2,12.3-83.6-3.8-144.5
	c-4.7-16.1-10.4-32.3-17.1-49.4l-137.9,2.8c-3.8,9.5-5.7,19-8.5,27.6c-18,70.3-17.1,124.5-3.8,162.6c13.3,37.1,36.1,59.9,61.8,68.5
	c1.9,0.9,2.9,0.9,4.7,1.9l8.6,1.9v8.6l-1,142.6v7.6l-6.7,2.9l-69.4,26.6h173l-66.6-25.7l-6.6-2.8V440.2z M285.9,304.2L285,432.6
	l87.4,34.2l0,0c3.8,1,6.7,3.8,8.5,7.6c1.9,2.9,2.9,7.6,1,11.4l0,0c-1,4.7-2.8,7.6-6.6,9.5l0,0c-2.9,1.9-6.7,3.8-10.5,3.8H135.7
	c-3.8,0-7.6-1.9-10.4-3.8l0,0c-3.8-1.9-5.7-4.7-7.6-9.5l0,0c-1-3.8,0-8.5,1.9-11.4l0,0c1.9-3.8,4.7-6.7,8.5-7.6l0,0l89.4-35.2V305.2
	c-30.4-11.4-58-39-73.2-81.8c-14.3-42.8-16.2-100.8,3.8-175.9c2.9-11.4,6.7-23.8,10.4-36.1l2.9-7.6h7.6L323,0h7.6l2.9,7.6
	c8.6,20,15.2,40,20,59c18.1,65.6,17.1,117.9,3.8,156.9c-13.3,40.9-39,67.5-68.5,79.9C287.8,303.3,286.9,304.2,285.9,304.2
	L285.9,304.2z"/>
</svg>
