<?xml version="1.0" encoding="utf-8"?>
<!-- Generator: Adobe Illustrator 21.1.0, SVG Export Plug-In . SVG Version: 6.00 Build 0)  -->
<svg version="1.1" id="Capa_1" xmlns="http://www.w3.org/2000/svg" xmlns:xlink="http://www.w3.org/1999/xlink" x="0px" y="0px"
	 viewBox="0 0 500 500" style="enable-background:new 0 0 500 500;" xml:space="preserve">
<path d="M286,130.4c0.8-2.3,2.3-5.5,2.3-7.8c0.8-2.3,0.8-4.7,0.8-7.8c0-15.6-14.1-15.6-33.6-15.6l0,0h-4.7h-4.7l0,0
	c-19.5,0-34.3,0-34.3,15.6c0,3.1,0,5.5,0.8,7.8c0,2.3,0.8,5.5,2.3,7.8l3.9,10.1l-10.9,2.3c-46.1,8.6-87.4,30.4-119.4,62.4
	c-32.8,32-55.4,73.4-64.8,119.5l0,0l0,0l0,0l0,0l0,0h32h389.5h32.8c-3.1-38.3-24.2-75.7-54.6-107.7c-36.7-37.5-85.9-66.3-130.4-74.2
	l-11.7-2.3L286,130.4z M306.3,126.5v0.8c45.3,10.9,93.7,39.8,129.6,77.3c35.9,37.5,60.9,83.5,60.9,129.6v8.6h-3.9v8.6v32v8.6h-9.4
	h-466H8.1v-8.6v-32v-8.6H2.7l1.6-10.1c0-2.3,0.8-3.9,0.8-5.5c0-1.6,0.8-3.1,0.8-5.5v-7.8h1.6c10.9-46.8,35.1-89,67.9-121
	c32.8-32,73.4-55.4,119.4-65.6v-0.8c-0.8-3.9-1.6-7.8-1.6-11.7c0-34.3,24.2-33.6,53.1-33.6h4.7h4.7c29.7,0,51.5-0.8,51.5,33.6
	C307.1,118.7,307.1,122.6,306.3,126.5L306.3,126.5z M474.2,360.7H202.5v13.3h271.7V360.7z M27.7,360.7h-1.6v13.3h1.6V360.7z
	 M184.6,366.9H46.4v0.8h138.2V366.9z M94.8,285.7c0.8-2.3,0.8-3.9,0.8-4.7c0.8-1.6,0.8-3.1,1.6-4.7c0.8-3.1,1.6-6.2,2.3-9.4
	c0.8-1.6,0.8-3.1,1.6-4.7c-0.8,0.8-1.6,2.4-2.3,3.9c-1.6,3.1-2.3,6.2-3.9,9.4c-0.8,0.8-0.8,2.3-1.6,3.9c-0.8,2.3-1.6,3.9-1.6,4.7
	l0,0c-0.8,1.6-0.8,2.3-0.8,2.3s0,0,0.8,0l0,0c0,0,0.8,0,1.6,0C94,286.5,94.8,285.7,94.8,285.7L94.8,285.7z M113.5,285
	c0,1.6-0.8,2.3-0.8,3.9l0,0c-1.6,8.6-8.6,14.1-16.4,15.6c-2.3,0.8-6.3,0.8-8.6,0l0,0c-3.9-0.8-7-2.3-9.4-4.7
	c-4.7-4.7-7-11.7-3.9-21.1l0,0c0.8-2.3,0.8-3.9,1.6-5.5c0.8-1.6,1.6-3.1,2.4-4.7c0.8-3.9,2.3-7,3.9-10.2c1.6-3.1,3.1-6.2,5.5-9.4
	c3.1-6.2,7.8-12.5,12.5-18.7c3.9-5.5,8.6-10.9,14.1-15.6l0,0c5.5-4.7,11.7-9.4,18-13.3l0,0c7-3.1,13.3-6.2,20.3-8.6l0,0
	c7-1.6,14.1-3.1,21.1-3.1c7,0,14.8,0,21.9,0.8l-1.6,18.7c-6.3,0-11.7,0-17.2,1.6c-5.5,0.8-10.9,2.3-15.6,4.7l0,0
	c-4.7,2.3-9.4,5.5-13.3,8.6c-4.7,3.1-8.6,7-11.7,10.9c-3.9,4.7-7,8.6-9.4,13.3c-3.1,5.5-5.5,10.9-7,15.6c-1.6,3.1-2.4,5.5-3.1,8.6
	c-0.8,2.3-1.6,5.5-2.3,7.8C114.3,281.8,114.3,282.6,113.5,285L113.5,285z"/>
</svg>
