<?xml version="1.0" encoding="utf-8"?>
<!-- Generator: Adobe Illustrator 21.1.0, SVG Export Plug-In . SVG Version: 6.00 Build 0)  -->
<svg version="1.1" id="Capa_1" xmlns="http://www.w3.org/2000/svg" xmlns:xlink="http://www.w3.org/1999/xlink" x="0px" y="0px"
	 viewBox="0 0 500 500" style="enable-background:new 0 0 500 500;" xml:space="preserve">
<path d="M446.2,109.2c-2.8-49.9-60.4-78-130-88.6c-27.4-4.2-56.9-4.9-85.8-3.5c-28.8,1.4-56.9,6.3-81.5,13.4
	c-52.7,15.5-90,41.5-87.2,78v1.4l-2.1,24.6v11.9v12.6l-11.2-4.9c0,0-0.7,0-0.7-0.7H47h-0.7H35c-2.1,0-3.5,0.7-4.2,2.1
	c-1.4,0.7-2.1,2.8-2.1,4.2v67.5c0,2.1,0.7,3.5,2.1,4.2l0,0c0.7,1.4,2.1,2.1,4.2,2.1h11.2c0.7,0,0.7,0,0.7,0c0.7,0,0.7,0,1.4-0.7
	l11.2-4.2v12v137.1c0,10.5,4.2,20.4,11.2,27.4l0,0c7,7,16.9,11.2,27.4,11.2h8.4h7.7v7.7v24.6c0,9.9,4.2,18.3,10.5,24.6l0,0
	c6.3,6.4,15.5,10.6,25.3,10.6c9.1,0,18.3-4.2,24.6-10.6c6.3-6.3,10.5-14.7,10.5-24.6v-24.6v-7.7h7.7h121.6h8.4v7.7v24.6
	c0,9.9,3.5,18.3,9.8,24.6c6.3,6.4,15.5,10.6,25.3,10.6s18.3-4.2,24.6-10.6c6.3-6.3,10.5-14.7,10.5-24.6v-24.6v-7.7h8.4h8.4
	c10.5,0,19.7-4.2,26.7-11.2c7-7,11.2-16.9,11.2-27.4V241.4v-10.6l10.5,2.8h0.7l0,0c0,0,0,0,0.7,0h11.2c1.4,0,2.8-0.7,4.2-2.1l0,0
	c1.4-0.7,2.1-2.1,2.1-4.2v-67.5c0-1.4-0.7-3.5-2.1-4.2c-1.4-1.4-2.8-2.1-4.2-2.1h-11.2c-0.7,0-0.7,0-0.7,0l0,0l-0.7,0.7l-10.5,2.1
	v-10.5v-11.2l-2.1-24.6V109.2z M319,4.5c76.6,11.2,139.9,45,143.4,104l0,0l2.1,24.6v0.7v3.5h7c6.3,0,11.9,2.8,15.5,6.3
	c4.2,4.2,7,9.8,7,16.1v67.5c0,6.3-2.8,11.9-7,16.2l0,0c-3.5,4.2-9.1,6.3-15.5,6.3h-7v127.9c0,15.4-5.6,28.8-15.5,38.6l0,0
	c-9.8,9.9-23.9,16.2-38.7,16.2h-0.7v16.2c0,14.1-5.6,26.7-14.8,36.6l0,0c-9.8,9.1-22.5,14.7-36.6,14.7s-27.4-5.6-36.6-14.7l0,0
	c-9.1-9.8-15.5-22.5-15.5-36.6v-16.2H201.6v16.2c0,14.1-5.6,26.7-15.5,36.6l0,0c-9.1,9.1-21.8,14.7-35.8,14.7
	c-14.8,0-27.4-5.6-36.6-14.7l0,0c-9.8-9.8-15.5-22.5-15.5-36.6v-16.2l0,0c-15.5,0-28.8-6.3-38.7-16.2l0,0
	c-9.8-9.8-16.2-23.2-16.2-38.6V249.8H35c-6.3,0-11.9-2.1-16.2-6.3l0,0c-4.2-4.2-6.3-9.9-6.3-16.2v-67.5c0-6.3,2.1-11.9,6.3-16.1
	c4.2-3.5,9.8-6.3,16.2-6.3h8.4v-3.5v-0.7l2.1-23.9C42.1,63.5,84.9,31.9,144.7,15C170,7.3,199.5,2.4,229.7,1
	C259.3-1.1,290.2,0.3,319,4.5L319,4.5z M300.7,100.8h68.9c11.2,0,20.4,4.2,28.1,11.3l0,0c7,7,11.2,16.9,11.2,28.1v102.6
	c0,11.2-4.2,21.1-11.2,28.1l0,0c-7.7,7-16.9,11.2-28.1,11.2h-68.9c-11.2,0-21.1-4.2-28.1-11.2l0,0l0,0c-7-7-11.2-16.9-11.2-28.1
	V140.2c0-11.3,4.2-21.1,11.2-28.1l0,0l0,0C279.6,105,289.5,100.8,300.7,100.8L300.7,100.8z M369.6,117h-68.9c-6.3,0-11.9,2.8-16.2,7
	l0,0c-4.2,4.2-7,9.8-7,16.2v102.6c0,6.3,2.8,12.6,7,16.1l0,0c4.2,4.2,9.8,7,16.2,7h68.9c6.3,0,11.9-2.8,16.2-7l0,0
	c4.2-3.5,7-9.8,7-16.1V140.2c0-6.3-2.8-12-7-16.2l0,0C381.6,119.8,375.9,117,369.6,117L369.6,117z M145.4,100.8h68.9
	c10.5,0,20.4,4.2,27.4,11.3l0,0c7.7,7,11.9,16.9,11.9,28.1v102.6c0,11.2-4.2,21.1-11.9,28.1l0,0c-7,7-16.9,11.2-27.4,11.2h-68.9
	c-11.2,0-21.1-4.2-28.1-11.2l0,0c-7-7-11.2-16.9-11.2-28.1V140.2c0-11.3,4.2-21.1,11.2-28.1l0,0C124.3,105,134.1,100.8,145.4,100.8
	L145.4,100.8z M214.3,117h-68.9c-6.3,0-12.7,2.8-16.2,7h-0.7c-3.5,4.2-6.3,9.8-6.3,16.2v102.6c0,6.3,2.8,12.6,6.3,16.1h0.7
	c3.5,4.2,9.8,7,16.2,7h68.9c6.3,0,11.9-2.8,16.2-7l0,0c4.2-3.5,7-9.8,7-16.1V140.2c0-6.3-2.8-12-7-16.2l0,0
	C226.2,119.8,220.6,117,214.3,117L214.3,117z M150.3,402.3c-11.2,0-21.8-4.2-28.8-12l0,0c-7.7-7-12-17.6-12-28.8
	c0-11.2,4.2-21.1,12-28.8l0,0c7-7,17.6-11.9,28.8-11.9c11.2,0,21.1,4.9,28.1,11.9l0,0c7.7,7.7,11.9,17.6,11.9,28.8l0,0
	c0,11.3-4.2,21.8-11.9,28.8l0,0l0,0C171.4,398.1,160.8,402.3,150.3,402.3L150.3,402.3L150.3,402.3z M132.7,379.1
	c4.2,4.2,10.5,7,17.6,7l0,0l0,0c6.3,0,12.6-2.8,16.9-7l0,0c4.2-4.2,7-10.6,7-17.6l0,0c0-6.3-2.8-12.6-7-16.9l0,0
	c-4.2-4.2-10.5-7-16.9-7c-7,0-13.4,2.8-17.6,7l0,0c-4.2,4.2-7,10.5-7,16.9C125.7,368.6,128.5,374.9,132.7,379.1L132.7,379.1z
	 M358.4,402.3c-11.2,0-21.8-4.2-28.8-12c-7.7-7-11.9-17.6-11.9-28.8c0-11.2,4.2-21.1,11.9-28.8c7-7,17.6-11.9,28.8-11.9
	s21.1,4.9,28.8,11.9l0,0c7,7.7,11.9,17.6,11.9,28.8c0,11.3-4.9,21.8-11.9,28.8l0,0C379.4,398.1,369.6,402.3,358.4,402.3L358.4,402.3
	z M340.8,379.1c4.9,4.2,10.5,7,17.6,7c6.3,0,12.7-2.8,16.9-7l0,0c4.9-4.2,7-10.6,7-17.6c0-6.3-2.1-12.6-7-16.9l0,0
	c-4.2-4.2-10.5-7-16.9-7c-7,0-12.7,2.8-17.6,7c-4.2,4.2-7,10.5-7,16.9C333.7,368.6,336.6,374.9,340.8,379.1L340.8,379.1z"/>
</svg>
