<?xml version="1.0" encoding="utf-8"?>
<!-- Generator: Adobe Illustrator 21.1.0, SVG Export Plug-In . SVG Version: 6.00 Build 0)  -->
<svg version="1.1" id="Capa_1" xmlns="http://www.w3.org/2000/svg" xmlns:xlink="http://www.w3.org/1999/xlink" x="0px" y="0px"
	 viewBox="0 0 500 500" style="enable-background:new 0 0 500 500;" xml:space="preserve">
<g>
	<path d="M126.1,265.3c-8.8-6.1-18.9-10.1-29.6-12.1c8.1-2.7,15.5-7.4,21.6-13.5c10.8-10.1,16.8-24.3,16.8-39.8
		c0-14.8-6.1-28.3-15.5-38.4c-44.3-36-80.2-0.7-80.2-0.7C29.1,171,23,184.5,23,200c0,15.5,6.1,29.6,16.2,39.8
		c6.7,6.1,14.8,11.4,23.6,14.1c-15.5,3.4-29,10.8-39.7,21.6C8.2,290.2-0.6,309.8-0.6,332v49.2c0,8.8,3.4,16.2,8.8,21.6
		c5.4,5.4,13.5,8.8,21.6,8.8h103.7h7.4v-7.4V361c0-9.4,1.3-18.8,4-27.6c2-8.8,6.1-17.5,10.8-25.6l2-3.4l-2-3.4
		C149.7,286.2,139.6,274.1,126.1,265.3z M50.6,228.3c-7.4-6.7-12.1-16.8-12.1-28.3c0-10.8,4.7-20.9,12.1-28.3
		c6.7-7.4,16.8-11.5,28.3-11.5c10.8,0,20.9,4.1,28.3,11.5c7.4,7.4,11.5,17.5,11.5,28.3c0,11.5-4.1,21.6-11.5,28.3
		c-7.4,7.4-17.5,12.1-28.3,12.1C67.5,240.4,57.4,235.7,50.6,228.3z M129.5,329.3c-2.7,10.1-4.1,20.9-4.1,31.7v35H29.8
		c-4,0-7.4-1.3-10.1-4c-2.7-2.7-4.7-6.8-4.7-10.8V332c0-17.5,7.4-33.7,18.9-45.8c11.5-11.4,27.6-18.8,45.1-18.8h3.4
		c12.8,0,25.6,4,35.7,10.8c9.4,6.7,16.8,15.5,22.2,25.6C135.5,311.8,132.2,320.6,129.5,329.3z"/>
	<path d="M476.4,274.7c-11.5-11.4-26.3-19.5-42.4-22.2c8.1-3.4,15.5-8.1,21.6-14.1h0.7c10.1-10.1,16.2-23.6,16.2-39.1
		c0-15.5-6.1-29.6-16.2-39.8c-10.1-9.4-22.9-15.5-37.1-16.2c0.2-0.1,0.4-0.1,0.7-0.1c-12.4-0.7-27.1,3-43.1,16.3
		c-10.1,10.1-16.2,24.3-16.2,39.8c0,15.5,6.1,29,16.2,39.1c6.7,6.7,14.8,11.4,23.6,14.1c-10.1,2-19.5,6.1-27.6,12.1
		c-13.5,8.7-23.6,21.5-29.6,35.7l-1.3,4l1.3,3.4c4.7,8.1,8.7,16.2,11.5,25.6c2,8.8,3.4,18.2,3.4,27.6v41.8v7.4l7.4,0.7h0.7h0.7h0.7
		h107.8c6.7,0,12.8-2.7,17.5-7.4c4.7-4,7.4-10.1,7.4-16.8v-55.9C500,309.1,490.6,288.9,476.4,274.7z M388.2,227.6
		c-7.4-7.4-12.1-17.5-12.1-28.3c0-11.4,4.7-21.6,12.1-28.3c6.7-7.4,16.8-12.1,28.3-12.1c10.8,0,20.9,4.7,28.3,12.1
		c7.4,6.7,12.1,16.8,12.1,28.3c0,10.8-4.7,20.9-12.1,28.3c-7.4,7.4-17.5,11.5-28.3,11.5C405,239,394.9,235,388.2,227.6z
		 M483.8,386.6c0,2-0.7,4-2,6.1c-2,1.3-4.1,2.7-6.7,2.7H373.4V361c0-10.8-1.3-21.5-4-31.7c-2.7-9.4-6.1-18.2-10.8-26.3
		c5.4-10.1,12.8-18.9,22.9-25.6c10.1-6.7,22.2-10.8,35-10.8h3.4c17.5,0,33.7,7.4,45.1,18.9c12.1,11.4,18.9,27.6,18.9,45.1V386.6z"/>
	<path d="M251.4,256.5h-0.7c18.2-1.3,35-8.8,47.2-20.9c13.5-13.5,21.6-31.7,21.6-51.2c0-20.2-8.1-38.4-21.6-51.2
		c-12.8-13.5-31-21.5-51.2-21.5c-19.5,0-37.7,8.1-51.2,21.5c-12.8,12.8-20.9,31-20.9,51.2c0,19.5,8.1,37.7,20.9,51.2
		c12.8,12.1,29.6,20.2,48.5,20.9c-26.9,0.7-51.9,12.1-70.7,31C154.4,306.4,143,332,143,361v66c0,10.8,4,20.2,11.5,27.6
		c6.7,6.7,16.2,10.8,26.9,10.8h144.8c8.1,0,15.5-3.4,20.9-8.8c6.1-5.4,9.4-12.8,9.4-20.9V361c0-29-12.1-54.6-31-73.4
		C306.7,268,280.4,256.5,251.4,256.5z M206.9,224.2c-10.1-10.1-16.8-24.3-16.8-39.8c0-16.2,6.7-30.3,16.8-40.4
		c10.1-10.1,24.3-16.2,39.7-16.2c16.2,0,30.3,6.1,40.4,16.2c10.1,10.1,16.2,24.3,16.2,40.4c0,15.5-6.1,29.7-16.2,39.8
		c-10.1,10.1-24.3,16.8-40.4,16.8C231.2,241.1,217.1,234.3,206.9,224.2z M340.3,435.7c0,3.4-1.3,7.4-4,10.1c-2.7,2.7-6.1,4-10.1,4
		H181.3c-6.1,0-12.1-2.7-16.2-6.7c-4-4-6.7-9.4-6.7-16.2v-66c0-24.2,10.1-46.5,26.3-62.6c16.2-16.2,38.4-26.3,62.7-26.3h4
		c24.9,0,47.2,10.1,63.3,26.3c15.5,16.2,25.6,38.4,25.6,62.6V435.7z"/>
</g>
</svg>
