<?xml version="1.0" encoding="utf-8"?>
<!-- Generator: Adobe Illustrator 21.1.0, SVG Export Plug-In . SVG Version: 6.00 Build 0)  -->
<svg version="1.1" id="Capa_1" xmlns="http://www.w3.org/2000/svg" xmlns:xlink="http://www.w3.org/1999/xlink" x="0px" y="0px"
	 viewBox="0 0 500 500" style="enable-background:new 0 0 500 500;" xml:space="preserve">
<style type="text/css">
	.st0{fill:url(#SVGID_1_);}
	.st1{fill:url(#SVGID_2_);}
	.st2{fill:#AA8E54;}
</style>
<g>
	<g>
		<linearGradient id="SVGID_1_" gradientUnits="userSpaceOnUse" x1="189.219" y1="191.3411" x2="304.4564" y2="191.3411">
			<stop  offset="0" style="stop-color:#E9CA7D"/>
			<stop  offset="1" style="stop-color:#B09147"/>
		</linearGradient>
		<polygon class="st0" points="246.8,206.8 296.3,158.8 296.3,225.4 264.6,198.4 258.7,204.1 304.5,243.2 304.5,139.5 246.8,195.4 
			189.2,139.5 189.2,243.2 235,204.1 229.1,198.4 197.4,225.4 197.4,158.8 		"/>
		<linearGradient id="SVGID_2_" gradientUnits="userSpaceOnUse" x1="203.9471" y1="172.5167" x2="289.7283" y2="172.5167">
			<stop  offset="0" style="stop-color:#E9CA7D"/>
			<stop  offset="1" style="stop-color:#B09147"/>
		</linearGradient>
		<polygon class="st1" points="246.8,186.7 281.6,151.7 281.6,195.1 274.4,188.9 268.6,194.6 289.7,213.2 289.7,131.8 246.8,175.1 
			203.9,131.8 203.9,213.2 225.1,194.6 219.2,188.9 212.1,195.1 212.1,151.7 		"/>
	</g>
	<g>
		<path class="st2" d="M42,280.6c4.8,1.9,7.2,6.1,7.2,12.5c0,8.7-5.3,13-15.8,13H0v-49.5h33.8c4.2,0,7.6,1.2,10,3.7
			c2.4,2.5,3.6,5.7,3.6,9.8C47.4,274.7,45.6,278.2,42,280.6z M33.9,277.3c1.9,0,3.5-0.7,4.8-2c1.3-1.3,1.9-2.9,1.9-4.8
			c0-2-0.6-3.6-1.7-4.8c-1.2-1.2-2.7-1.8-4.7-1.8H6.9v13.3H33.9z M33.4,298.7c5.8,0,8.7-2.3,8.7-6.8c0-4.8-2.5-7.2-7.6-7.2H6.9v14
			H33.4z"/>
		<path class="st2" d="M106.5,306.1h-7.6L94.1,295H65.9l-4.8,11.1h-7.6l22.1-49.5h8.7L106.5,306.1z M90.7,287.7l-10.7-24l-10.8,24
			H90.7z"/>
		<path class="st2" d="M161.3,306.1h-8.6l-31.9-40.6v40.6h-6.9v-49.5h8.6l31.9,40.6v-40.6h6.9V306.1z"/>
		<path class="st2" d="M207.7,306.5c-2.6,0.7-5.1,1-7.6,1c-7.3,0-13.5-2.2-18.4-6.6c-5.7-5.1-8.5-11.6-8.5-19.6
			c0-7.9,2.8-14.4,8.5-19.6c5-4.5,11.1-6.7,18.4-6.7c7.2,0,13.3,2.2,18.3,6.7c5.7,5.1,8.5,11.6,8.5,19.5c0,10.2-4.2,17.7-12.7,22.7
			l5.2,6.8l-6.5,2.5L207.7,306.5z M209.5,297.9c6.7-3.2,10.1-8.8,10.1-16.7c0-5.8-2.1-10.5-6.3-14.2c-3.6-3.1-8-4.7-13.3-4.7
			c-5.3,0-9.8,1.6-13.4,4.7c-4.2,3.6-6.3,8.3-6.3,14.2c0,5.6,1.8,10.1,5.4,13.6c3.6,3.5,8.4,5.2,14.3,5.2c0.4,0,1.3,0,2.5-0.1
			l-4.5-6l6.6-2.3L209.5,297.9z"/>
		<path class="st2" d="M284.8,290.1c0,5.2-2.1,9.3-6.4,12.5c-4.3,3.3-10.1,5-17.3,5c-7.2,0-13-1.7-17.4-5c-4.2-3.2-6.4-7.4-6.4-12.5
			v-33.5h6.9v31.5c0,3.9,1.4,6.8,4.3,8.9c2.9,2.1,7,3.1,12.5,3.1c5.5,0,9.6-1,12.4-3.1c2.8-2.1,4.2-5,4.2-8.9v-31.5h6.9V290.1z"/>
		<path class="st2" d="M342.3,306.1h-43.8v-49.5h42.2v7.4h-35.2v12.7H330v7.4h-24.5v14.6h36.9V306.1z"/>
		<path class="st2" d="M393.9,264h-20v42.1h-6.9V264h-20v-7.4h46.9V264z"/>
		<path class="st2" d="M444.9,306.1h-43.8v-49.5h42.2v7.4h-35.2v12.7h24.5v7.4h-24.5v14.6h36.9V306.1z"/>
		<path class="st2" d="M490.1,268.2c-6.2-3.7-12.5-5.6-18.9-5.6c-4.3,0-7.5,0.6-9.8,1.8c-2.3,1.2-3.4,2.8-3.4,4.9
			c0,2.2,1.2,3.8,3.6,4.8c1.7,0.7,4.6,1.2,8.5,1.5c5.8,0.5,9.6,0.8,11.4,1.1c5.2,0.8,9.1,2.3,11.6,4.6c2.5,2.2,3.8,5.4,3.8,9.5
			c0,5.2-2,9.3-5.9,12.2c-3.9,2.9-9.6,4.3-16.9,4.3c-10.7,0-19-2.8-24.9-8.3l3.8-5.9c6.5,4.7,13.6,7.1,21.1,7.1
			c4.9,0,8.7-0.8,11.4-2.4c2.6-1.5,3.9-3.7,3.9-6.4c0-3.1-1.7-5.2-5.1-6.3c-1.8-0.5-6.5-1.1-14.3-1.7c-6.9-0.5-11.7-1.6-14.5-3.3
			c-3.2-1.9-4.9-5.1-4.9-9.6c0-4.6,1.8-8.3,5.5-11c3.7-2.7,8.9-4,15.6-4c9,0,16.6,2.4,22.6,7.3L490.1,268.2z"/>
	</g>
</g>
</svg>
