<?xml version="1.0" encoding="utf-8"?>
<!-- Generator: Adobe Illustrator 21.1.0, SVG Export Plug-In . SVG Version: 6.00 Build 0)  -->
<svg version="1.1" id="Capa_1" xmlns="http://www.w3.org/2000/svg" xmlns:xlink="http://www.w3.org/1999/xlink" x="0px" y="0px"
	 viewBox="0 0 500 500" style="enable-background:new 0 0 500 500;" xml:space="preserve">
<style type="text/css">
	.st0{fill:url(#SVGID_1_);}
	.st1{fill:url(#SVGID_2_);}
	.st2{fill:#AA8E54;}
</style>
<g>
	<g>
		<linearGradient id="SVGID_1_" gradientUnits="userSpaceOnUse" x1="177.5779" y1="200.6127" x2="332.1471" y2="200.6127">
			<stop  offset="0" style="stop-color:#E9CA7D"/>
			<stop  offset="1" style="stop-color:#B09147"/>
		</linearGradient>
		<polygon class="st0" points="254.9,221.3 321.2,157 321.2,246.3 278.7,210.1 270.8,217.8 332.1,270.1 332.1,131.1 254.9,206.1 
			177.6,131.1 177.6,270.1 238.9,217.8 231,210.1 188.5,246.3 188.5,157 		"/>
		<linearGradient id="SVGID_2_" gradientUnits="userSpaceOnUse" x1="197.3329" y1="175.3633" x2="312.3921" y2="175.3633">
			<stop  offset="0" style="stop-color:#E9CA7D"/>
			<stop  offset="1" style="stop-color:#B09147"/>
		</linearGradient>
		<polygon class="st1" points="254.9,194.5 301.4,147.4 301.4,205.7 291.9,197.3 284,205 312.4,229.9 312.4,120.8 254.9,178.9 
			197.3,120.8 197.3,229.9 225.7,205 217.8,197.3 208.3,205.7 208.3,147.4 		"/>
	</g>
	<g>
		<path class="st2" d="M58.7,354.6H0v-66.4h56.6v9.9H9.3v17.1h32.9v9.9H9.3v19.6h49.4V354.6z"/>
		<path class="st2" d="M134.4,288.2l-30.2,66.4H93.5l-30.2-66.4h10.4l25.2,55.3l25.2-55.3H134.4z"/>
		<path class="st2" d="M202.3,354.6h-58.7v-66.4h56.6v9.9h-47.3v17.1h32.9v9.9h-32.9v19.6h49.4V354.6z"/>
		<path class="st2" d="M280,354.6h-11.6l-42.8-54.4v54.4h-9.3v-66.4h11.5l42.8,54.5v-54.5h9.3V354.6z"/>
		<path class="st2" d="M352.7,298.1h-26.8v56.5h-9.3v-56.5h-26.8v-9.9h62.9V298.1z"/>
		<path class="st2" d="M427.1,321.3c0,10.9-3.8,19.7-11.3,26.4c-6.6,5.9-14.8,8.8-24.6,8.8c-9.9,0-18.2-3-24.8-8.9
			c-7.5-6.7-11.3-15.5-11.3-26.3c0-10.6,3.8-19.4,11.5-26.2c6.7-6,14.9-9,24.6-9c9.8,0,18,3,24.6,9
			C423.3,301.9,427.1,310.6,427.1,321.3z M417.4,321.3c0-7.8-2.8-14.1-8.4-18.9c-4.8-4.2-10.8-6.2-17.9-6.2
			c-7.8,0-14.2,2.4-19.1,7.1c-4.9,4.7-7.4,10.7-7.4,18c0,7.5,2.4,13.6,7.2,18.2c4.8,4.6,11.2,6.9,19.2,6.9c8,0,14.3-2.3,19.1-7
			C415,334.8,417.4,328.7,417.4,321.3z"/>
		<path class="st2" d="M490.9,303.8c-8.3-5-16.8-7.5-25.4-7.5c-5.7,0-10.1,0.8-13.2,2.4c-3,1.6-4.6,3.8-4.6,6.6
			c0,2.9,1.6,5.1,4.9,6.4c2.3,1,6.1,1.7,11.4,2c7.7,0.6,12.9,1.1,15.3,1.5c7,1.1,12.2,3.1,15.6,6.1c3.4,3,5,7.2,5,12.7
			c0,7-2.6,12.5-7.9,16.3c-5.3,3.9-12.8,5.8-22.7,5.8c-14.3,0-25.4-3.7-33.4-11.2l5.1-8c8.8,6.4,18.2,9.5,28.4,9.5
			c6.6,0,11.6-1.1,15.3-3.2c3.5-2.1,5.2-4.9,5.2-8.5c0-4.2-2.3-7-6.8-8.4c-2.4-0.7-8.8-1.5-19.2-2.3c-9.2-0.7-15.7-2.2-19.4-4.4
			c-4.3-2.6-6.5-6.9-6.5-12.9c0-6.2,2.5-11.2,7.4-14.8c4.9-3.6,11.9-5.4,20.9-5.4c12.1,0,22.2,3.3,30.4,9.8L490.9,303.8z"/>
	</g>
</g>
</svg>
