<?xml version="1.0" encoding="utf-8"?>
<!-- Generator: Adobe Illustrator 21.1.0, SVG Export Plug-In . SVG Version: 6.00 Build 0)  -->
<svg version="1.1" id="Capa_1" xmlns="http://www.w3.org/2000/svg" xmlns:xlink="http://www.w3.org/1999/xlink" x="0px" y="0px"
	 viewBox="0 0 500 500" style="enable-background:new 0 0 500 500;" xml:space="preserve">
<style type="text/css">
	.st0{fill:url(#SVGID_1_);}
	.st1{fill:url(#SVGID_2_);}
	.st2{fill:#AA8E54;}
</style>
<g>
	<g>
		<linearGradient id="SVGID_1_" gradientUnits="userSpaceOnUse" x1="185.5406" y1="200.8529" x2="312.4258" y2="200.8529">
			<stop  offset="0" style="stop-color:#E9CA7D"/>
			<stop  offset="1" style="stop-color:#B09147"/>
		</linearGradient>
		<polygon class="st0" points="249,217.9 303.4,165.1 303.4,238.4 268.6,208.6 262.1,214.9 312.4,257.9 312.4,143.8 249,205.3 
			185.5,143.8 185.5,257.9 235.9,214.9 229.4,208.6 194.5,238.4 194.5,165.1 		"/>
		<linearGradient id="SVGID_2_" gradientUnits="userSpaceOnUse" x1="201.7574" y1="180.1257" x2="296.209" y2="180.1257">
			<stop  offset="0" style="stop-color:#E9CA7D"/>
			<stop  offset="1" style="stop-color:#B09147"/>
		</linearGradient>
		<polygon class="st1" points="249,195.8 287.2,157.2 287.2,205 279.4,198.1 272.9,204.4 296.2,224.9 296.2,135.3 249,183 
			201.8,135.3 201.8,224.9 225.1,204.4 218.6,198.1 210.8,205 210.8,157.2 		"/>
	</g>
	<g>
		<path class="st2" d="M49.2,292.1l-7,2.9c-4.2-4.9-9.5-7.4-16-7.4c-5.6,0-10,1.5-13.3,4.5c-3.3,3-5,6.9-5,11.8c0,5,1.7,8.9,5,11.9
			c3.3,3,7.8,4.5,13.4,4.5c6.5,0,11.9-2.5,16-7.5l6.6,4.1c-5.8,7.7-13.3,11.5-22.7,11.5c-7.8,0-14.1-2.3-18.9-6.9
			C2.4,317,0,311.1,0,303.9c0-7.5,2.7-13.6,8.2-18.3c4.7-4.1,10.6-6.2,17.5-6.2C35.4,279.4,43.2,283.6,49.2,292.1z"/>
		<path class="st2" d="M107.9,304c0,7.6-2.7,13.8-8.2,18.5c-4.7,4.1-10.5,6.1-17.5,6.1c-7,0-12.8-2-17.6-6.1
			c-5.5-4.7-8.2-10.9-8.2-18.5c0-7.5,2.8-13.6,8.3-18.4c4.8-4.2,10.7-6.2,17.5-6.2c6.8,0,12.6,2.1,17.4,6.2
			C105.1,290.4,107.9,296.5,107.9,304z M99.9,303.9c0-4.8-1.7-8.7-5-11.8c-3.3-3.1-7.6-4.6-12.8-4.6c-5.3,0-9.6,1.6-12.9,4.7
			c-3.3,3.1-5,7-5,11.8c0,4.9,1.6,8.9,4.9,12c3.3,3,7.6,4.6,13,4.6c5.4,0,9.7-1.5,12.9-4.6C98.3,312.8,99.9,308.9,99.9,303.9z"/>
		<path class="st2" d="M164.5,327.2h-11.4l-26.6-38.6v38.6h-7.6v-46.3h11.4l26.6,38.6v-38.6h7.6V327.2z"/>
		<path class="st2" d="M226.7,301.9v1.4c0,7.5-2.3,13.6-7,18.2c-4.6,4.7-10.8,7-18.5,7c-7,0-12.8-2-17.5-6.1
			c-5.5-4.7-8.2-10.9-8.2-18.5c0-7.5,2.7-13.6,8.2-18.4c4.8-4.2,10.8-6.2,17.9-6.2c8.7,0,15.8,3.6,21.5,10.8l-7.2,4.2
			c-4-4.6-8.9-6.8-14.8-6.8c-5.2,0-9.5,1.6-12.8,4.7c-3.4,3.1-5,7-5,11.8c0,4.9,1.6,8.9,4.9,11.9s7.6,4.6,12.9,4.6
			c8,0,13.4-3.5,16-10.4h-17.6v-8.1H226.7z"/>
		<path class="st2" d="M283.7,327.2H275l-10.2-17h-19.4v17h-7.6v-46.3h31.6c4.2,0,7.5,1.3,9.9,4c2.5,2.7,3.7,6.2,3.7,10.7
			c0,7.7-3.2,12.4-9.7,14.1L283.7,327.2z M268.2,302.1c4.6,0,6.9-2.1,6.9-6.3c0-4.5-2.5-6.7-7.4-6.7h-22.4v13H268.2z"/>
		<path class="st2" d="M336.7,327.2h-42.1v-46.3h40.6v8.1h-33v10h23v8.1h-23v11.9h34.5V327.2z"/>
		<path class="st2" d="M380.4,292.4c-5.1-3.2-10.6-4.7-16.6-4.7c-8.7,0-13,1.8-13,5.5c0,2.2,1.6,3.6,4.9,4.2
			c4.5,0.5,8.9,0.9,13.4,1.4c6.4,0.8,11,2.1,13.7,4.1c3,2.2,4.5,5.4,4.5,9.9c0,5-1.9,8.8-5.6,11.5c-3.8,2.7-9.2,4.1-16.3,4.1
			c-10.1,0-18.1-2.7-24.1-8.1l4.1-6.4c5.4,4.5,12,6.7,19.8,6.7c4.4,0,7.8-0.7,10.2-2c2.4-1.3,3.6-3.1,3.6-5.3c0-2.5-1.5-4.2-4.5-5.2
			c-1.7-0.6-4.2-0.9-7.7-1.1c-5.4-0.3-8.8-0.5-10-0.7c-4.8-0.6-8.4-1.8-10.7-3.7c-2.3-1.9-3.4-4.7-3.4-8.4c0-4.4,1.8-7.9,5.5-10.5
			c3.7-2.6,8.8-3.9,15.4-3.9c8.8,0,16,2.3,21.4,6.8L380.4,292.4z"/>
		<path class="st2" d="M446.8,304c0,7.6-2.7,13.8-8.2,18.5c-4.7,4.1-10.5,6.1-17.5,6.1c-7,0-12.8-2-17.6-6.1
			c-5.5-4.7-8.2-10.9-8.2-18.5c0-7.5,2.8-13.6,8.3-18.4c4.8-4.2,10.7-6.2,17.5-6.2c6.8,0,12.6,2.1,17.4,6.2
			C444.1,290.4,446.8,296.5,446.8,304z M438.9,303.9c0-4.8-1.7-8.7-5-11.8c-3.3-3.1-7.6-4.6-12.8-4.6c-5.3,0-9.6,1.6-12.9,4.7
			c-3.3,3.1-5,7-5,11.8c0,4.9,1.6,8.9,4.9,12c3.3,3,7.6,4.6,13,4.6c5.4,0,9.7-1.5,12.9-4.6C437.3,312.8,438.9,308.9,438.9,303.9z"/>
		<path class="st2" d="M492.6,292.4c-5.1-3.2-10.6-4.7-16.6-4.7c-8.7,0-13,1.8-13,5.5c0,2.2,1.6,3.6,4.9,4.2
			c4.5,0.5,8.9,0.9,13.4,1.4c6.4,0.8,11,2.1,13.7,4.1c3,2.2,4.5,5.4,4.5,9.9c0,5-1.9,8.8-5.6,11.5c-3.8,2.7-9.2,4.1-16.3,4.1
			c-10.1,0-18.1-2.7-24.1-8.1l4.1-6.4c5.4,4.5,12,6.7,19.8,6.7c4.4,0,7.8-0.7,10.2-2c2.4-1.3,3.6-3.1,3.6-5.3c0-2.5-1.5-4.2-4.5-5.2
			c-1.7-0.6-4.2-0.9-7.7-1.1c-5.4-0.3-8.8-0.5-10-0.7c-4.8-0.6-8.4-1.8-10.7-3.7c-2.3-1.9-3.4-4.7-3.4-8.4c0-4.4,1.8-7.9,5.5-10.5
			c3.7-2.6,8.8-3.9,15.4-3.9c8.8,0,16,2.3,21.4,6.8L492.6,292.4z"/>
	</g>
</g>
</svg>
