<?xml version="1.0" encoding="utf-8"?>
<!-- Generator: Adobe Illustrator 21.1.0, SVG Export Plug-In . SVG Version: 6.00 Build 0)  -->
<svg version="1.1" id="Capa_1" xmlns="http://www.w3.org/2000/svg" xmlns:xlink="http://www.w3.org/1999/xlink" x="0px" y="0px"
	 viewBox="0 0 500 500" style="enable-background:new 0 0 500 500;" xml:space="preserve">
<style type="text/css">
	.st0{fill:url(#SVGID_1_);}
	.st1{fill:url(#SVGID_2_);}
	.st2{fill:#AA8E54;}
</style>
<g>
	<g>
		<linearGradient id="SVGID_1_" gradientUnits="userSpaceOnUse" x1="199.115" y1="208.7099" x2="299.7244" y2="208.7099">
			<stop  offset="0" style="stop-color:#E9CA7D"/>
			<stop  offset="1" style="stop-color:#B09147"/>
		</linearGradient>
		<polygon class="st0" points="249.4,222.2 292.6,180.3 292.6,238.5 264.9,214.9 259.8,219.9 299.7,253.9 299.7,163.5 249.4,212.3 
			199.1,163.5 199.1,253.9 239,219.9 233.9,214.9 206.2,238.5 206.2,180.3 		"/>
		<linearGradient id="SVGID_2_" gradientUnits="userSpaceOnUse" x1="211.9736" y1="192.275" x2="286.8658" y2="192.275">
			<stop  offset="0" style="stop-color:#E9CA7D"/>
			<stop  offset="1" style="stop-color:#B09147"/>
		</linearGradient>
		<polygon class="st1" points="249.4,204.7 279.7,174.1 279.7,212 273.5,206.6 268.4,211.5 286.9,227.8 286.9,156.8 249.4,194.6 
			212,156.8 212,227.8 230.5,211.5 225.3,206.6 219.1,212 219.1,174.1 		"/>
	</g>
	<g>
		<path class="st2" d="M39,281l-5.5,2.3c-3.3-3.9-7.5-5.8-12.7-5.8c-4.4,0-7.9,1.2-10.5,3.6c-2.6,2.4-3.9,5.5-3.9,9.3
			c0,3.9,1.3,7.1,3.9,9.5c2.6,2.4,6.2,3.6,10.6,3.6c5.2,0,9.4-2,12.7-6l5.2,3.3c-4.6,6.1-10.6,9.1-18,9.1c-6.2,0-11.2-1.8-15-5.5
			c-3.8-3.6-5.7-8.3-5.7-14c0-5.9,2.2-10.8,6.5-14.5c3.8-3.3,8.4-4.9,13.9-4.9C28.1,271,34.3,274.4,39,281z"/>
		<path class="st2" d="M85.5,290.5c0,6-2.2,10.9-6.5,14.7c-3.7,3.2-8.3,4.8-13.9,4.8c-5.5,0-10.2-1.6-13.9-4.8
			c-4.3-3.7-6.5-8.6-6.5-14.7c0-6,2.2-10.8,6.6-14.6c3.8-3.3,8.5-5,13.9-5c5.4,0,10,1.7,13.8,5C83.4,279.7,85.5,284.5,85.5,290.5z
			 M79.2,290.4c0-3.8-1.3-6.9-3.9-9.4c-2.6-2.5-6-3.7-10.2-3.7c-4.2,0-7.6,1.2-10.2,3.7c-2.6,2.5-4,5.6-4,9.3c0,3.9,1.3,7.1,3.9,9.5
			c2.6,2.4,6,3.6,10.3,3.6c4.2,0,7.7-1.2,10.2-3.6C77.9,297.5,79.2,294.3,79.2,290.4z"/>
		<path class="st2" d="M130.4,308.9h-9l-21.1-30.6v30.6h-6.1v-36.7h9l21.1,30.6v-30.6h6.1V308.9z"/>
		<path class="st2" d="M176.8,272.2l-17.1,36.7h-7l-17.1-36.7h6.7l13.9,30.5l13.9-30.5H176.8z"/>
		<path class="st2" d="M215.4,308.9H182v-36.7h32.2v6.4H188v7.9h18.2v6.4H188v9.4h27.3V308.9z"/>
		<path class="st2" d="M259.3,308.9h-9l-21.1-30.6v30.6h-6.1v-36.7h9l21.1,30.6v-30.6h6.1V308.9z"/>
		<path class="st2" d="M307,281l-5.5,2.3c-3.3-3.9-7.5-5.8-12.7-5.8c-4.4,0-7.9,1.2-10.5,3.6c-2.6,2.4-3.9,5.5-3.9,9.3
			c0,3.9,1.3,7.1,3.9,9.5c2.6,2.4,6.2,3.6,10.6,3.6c5.2,0,9.4-2,12.7-6l5.2,3.3c-4.6,6.1-10.6,9.1-18,9.1c-6.2,0-11.2-1.8-15-5.5
			c-3.8-3.6-5.7-8.3-5.7-14c0-5.9,2.2-10.8,6.5-14.5c3.8-3.3,8.4-4.9,13.9-4.9C296.1,271,302.3,274.4,307,281z"/>
		<path class="st2" d="M321.6,308.9h-6.1v-36.7h6.1V308.9z"/>
		<path class="st2" d="M371.1,290.5c0,6-2.2,10.9-6.5,14.7c-3.7,3.2-8.3,4.8-13.9,4.8c-5.5,0-10.2-1.6-13.9-4.8
			c-4.3-3.7-6.5-8.6-6.5-14.7c0-6,2.2-10.8,6.6-14.6c3.8-3.3,8.5-5,13.9-5c5.4,0,10,1.7,13.8,5C368.9,279.7,371.1,284.5,371.1,290.5
			z M364.8,290.4c0-3.8-1.3-6.9-3.9-9.4c-2.6-2.5-6-3.7-10.2-3.7c-4.2,0-7.6,1.2-10.2,3.7c-2.6,2.5-4,5.6-4,9.3
			c0,3.9,1.3,7.1,3.9,9.5c2.6,2.4,6,3.6,10.3,3.6c4.2,0,7.7-1.2,10.2-3.6C363.5,297.5,364.8,294.3,364.8,290.4z"/>
		<path class="st2" d="M416,308.9h-9l-21.1-30.6v30.6h-6.1v-36.7h9l21.1,30.6v-30.6h6.1V308.9z"/>
		<path class="st2" d="M460,308.9h-33.4v-36.7h32.2v6.4h-26.2v7.9h18.2v6.4h-18.2v9.4H460V308.9z"/>
		<path class="st2" d="M494.6,281.3c-4-2.5-8.4-3.8-13.2-3.8c-6.9,0-10.3,1.5-10.3,4.4c0,1.7,1.3,2.8,3.9,3.3
			c3.5,0.4,7.1,0.7,10.6,1.1c5.1,0.6,8.7,1.7,10.8,3.2c2.4,1.7,3.6,4.3,3.6,7.8c0,3.9-1.5,7-4.5,9.1c-3,2.1-7.3,3.2-12.9,3.2
			c-8,0-14.3-2.1-19.1-6.4l3.3-5.1c4.3,3.5,9.5,5.3,15.7,5.3c3.5,0,6.2-0.5,8.1-1.6c1.9-1.1,2.9-2.5,2.9-4.2c0-1.9-1.2-3.3-3.5-4.1
			c-1.3-0.4-3.3-0.7-6.1-0.9c-4.3-0.2-6.9-0.4-7.9-0.5c-3.8-0.4-6.7-1.4-8.5-2.9c-1.8-1.5-2.7-3.7-2.7-6.6c0-3.5,1.5-6.3,4.4-8.3
			c2.9-2,7-3.1,12.2-3.1c7,0,12.7,1.8,17,5.4L494.6,281.3z"/>
	</g>
</g>
</svg>
